# Blender v2.79 (sub 0) OBJ File: 'humalea.blend'
# www.blender.org
mtllib arrow.mtl
o Cube.007
v 0.000000 0.087634 0.007038
v 0.000000 0.858107 0.007038
v -0.007038 0.087634 0.000000
v -0.007038 0.858107 0.000000
v 0.007038 0.087634 0.000000
v 0.007038 0.858107 0.000000
v 0.000000 0.087634 -0.007038
v 0.000000 0.858107 -0.007038
v 0.000000 0.886764 0.009250
v -0.021839 0.886764 0.000000
v 0.000000 0.886764 -0.009250
v 0.021839 0.886764 0.000000
v 0.000000 0.958955 0.000000
v 0.000000 0.958955 0.000000
v 0.000000 0.958955 0.000000
v 0.000000 0.958955 0.000000
v 0.000000 -0.002112 0.039719
v -0.039719 -0.002112 0.000000
v 0.039719 -0.002112 0.000000
v 0.000000 -0.002112 -0.039719
vt 0.558703 0.530832
vt 0.551953 0.310066
vt 0.554862 0.309790
vt 0.555587 0.530982
vt 0.552390 0.311398
vt 0.556044 0.531712
vt 0.555291 0.311125
vt 0.559149 0.531562
vt 0.562510 0.289853
vt 0.555772 0.540633
vt 0.563039 0.540941
vt 0.557900 0.562460
vt 0.557900 0.562460
vt 0.559277 0.539518
vt 0.551958 0.539206
vt 0.557900 0.562460
vt 0.557900 0.562460
vt 0.546368 0.291444
vt 0.560209 0.281963
vt 0.543806 0.283608
vn -0.7071 0.0000 0.7071
vn -0.7071 0.0000 -0.7071
vn 0.7071 0.0000 -0.7071
vn 0.7071 0.0000 0.7071
vn 0.6848 0.2494 0.6848
vn 0.3823 -0.1975 -0.9027
vn 0.0000 0.0000 1.0000
vn -0.3823 -0.1975 0.9027
vn 0.7061 -0.0545 0.7061
vn -0.7061 -0.0545 -0.7061
vn 0.0000 -1.0000 0.0000
vn -0.6848 0.2494 -0.6848
vn -0.6848 0.2494 0.6848
vn 0.6848 0.2494 -0.6848
vn 0.7061 -0.0545 -0.7061
vn 0.3873 0.1172 -0.9145
vn -0.7061 -0.0545 0.7061
vn 0.3823 -0.1975 0.9027
vn -0.3823 -0.1975 -0.9027
vn -0.3873 0.1172 0.9145
vn 0.3873 0.1172 0.9145
vn -0.3873 0.1172 -0.9145
usemtl env_wood
s off
f 2/1/1 3/2/1 1/3/1
f 4/4/2 7/5/2 3/2/2
f 8/6/3 5/7/3 7/5/3
f 6/8/4 1/3/4 5/7/4
f 1/3/5 19/9/5 5/7/5
f 6/8/6 11/10/6 12/11/6
f 12/11/7 15/12/7 16/13/7
f 4/4/8 9/14/8 10/15/8
f 6/8/9 9/14/9 2/1/9
f 4/4/10 11/10/10 8/6/10
f 15/12/7 13/16/7 16/13/7
f 10/15/7 13/16/7 14/17/7
f 9/14/7 16/13/7 13/16/7
f 11/10/7 14/17/7 15/12/7
f 20/18/11 17/19/11 18/20/11
f 7/5/12 18/20/12 3/2/12
f 1/3/13 18/20/13 17/19/13
f 7/5/14 19/9/14 20/18/14
f 2/1/1 4/4/1 3/2/1
f 4/4/2 8/6/2 7/5/2
f 8/6/3 6/8/3 5/7/3
f 6/8/4 2/1/4 1/3/4
f 1/3/5 17/19/5 19/9/5
f 6/8/15 8/6/15 11/10/15
f 12/11/16 11/10/16 15/12/16
f 4/4/17 2/1/17 9/14/17
f 6/8/18 12/11/18 9/14/18
f 4/4/19 10/15/19 11/10/19
f 15/12/7 14/17/7 13/16/7
f 10/15/20 9/14/20 13/16/20
f 9/14/21 12/11/21 16/13/21
f 11/10/22 10/15/22 14/17/22
f 20/18/11 19/9/11 17/19/11
f 7/5/12 20/18/12 18/20/12
f 1/3/13 3/2/13 18/20/13
f 7/5/14 5/7/14 19/9/14
