# Blender v2.79 (sub 0) OBJ File: 'humalea.blend'
# www.blender.org
mtllib torch.mtl
o Circle.003
v 0.000000 0.000000 -0.024385
v -0.023191 0.000000 -0.007535
v -0.014333 0.000000 0.019728
v 0.014333 0.000000 0.019728
v 0.023192 0.000000 -0.007535
v 0.000000 0.469413 -0.029344
v -0.027908 0.469413 -0.009068
v -0.017248 0.469413 0.023740
v 0.017248 0.469413 0.023740
v 0.027908 0.469413 -0.009068
v 0.000000 0.525331 -0.048044
v -0.045693 0.525331 -0.014846
v -0.028240 0.525331 0.038868
v 0.028240 0.525331 0.038868
v 0.045693 0.525331 -0.014846
v 0.000000 0.586971 -0.029344
v -0.027908 0.586971 -0.009068
v -0.017248 0.586971 0.023740
v 0.017248 0.586971 0.023740
v 0.027908 0.586971 -0.009068
v 0.000000 0.597870 -0.000000
v 0.000000 0.597870 -0.000000
v 0.000000 0.597870 -0.000000
v 0.000000 0.597870 -0.000000
v 0.000000 0.597870 -0.000000
v 0.000000 -0.018148 -0.000000
v 0.000000 -0.018148 -0.000000
v 0.000000 -0.018148 -0.000000
v 0.000000 -0.018148 -0.000000
v 0.000000 -0.018148 -0.000000
vt 0.488546 0.757301
vt 0.449298 0.434138
vt 0.484923 0.434138
vt 0.555112 0.439228
vt 0.515865 0.716887
vt 0.519487 0.439228
vt 0.628925 0.716887
vt 0.589677 0.439228
vt 0.625302 0.439228
vt 0.418357 0.757301
vt 0.379109 0.434138
vt 0.414734 0.434138
vt 0.348167 0.757301
vt 0.308920 0.434138
vt 0.344545 0.434138
vt 0.375487 0.757301
vt 0.432016 0.795905
vt 0.361827 0.795905
vt 0.291637 0.795905
vt 0.305297 0.757301
vt 0.445676 0.757301
vt 0.572395 0.755197
vt 0.502206 0.755197
vt 0.572395 0.755197
vt 0.586055 0.716887
vt 0.488546 0.838226
vt 0.445676 0.838226
vt 0.558736 0.786064
vt 0.515866 0.786064
vt 0.642585 0.755197
vt 0.586055 0.786064
vt 0.418357 0.838226
vt 0.375487 0.838226
vt 0.361827 0.795905
vt 0.305297 0.838226
vt 0.667710 0.421500
vt 0.677913 0.442023
vt 0.677913 0.442023
vt 0.667710 0.458908
vt 0.677913 0.442023
vt 0.677913 0.442023
vt 0.708363 0.429038
vt 0.677913 0.442023
vt 0.642585 0.439961
vt 0.708363 0.452157
vt 0.467111 0.421500
vt 0.467111 0.421500
vt 0.537299 0.421500
vt 0.537299 0.421500
vt 0.607490 0.421500
vt 0.607490 0.421500
vt 0.396922 0.421500
vt 0.396922 0.421500
vt 0.326732 0.421500
vt 0.326732 0.421500
vt 0.558735 0.716887
vt 0.502206 0.795905
vt 0.628925 0.786064
vt 0.348167 0.838226
vn 0.9510 -0.0085 0.3090
vn -0.9510 -0.0085 0.3090
vn 0.5878 -0.0085 -0.8090
vn 0.0000 -0.0085 1.0000
vn -0.5878 -0.0085 -0.8090
vn 0.0000 -0.2612 0.9653
vn -0.5674 -0.2612 -0.7809
vn 0.9181 -0.2612 0.2983
vn -0.9181 -0.2612 0.2983
vn 0.5674 -0.2612 -0.7809
vn 0.9236 0.2384 0.3001
vn -0.9236 0.2384 0.3001
vn 0.5708 0.2384 -0.7857
vn 0.0000 0.2384 0.9712
vn -0.5708 0.2384 -0.7857
vn 0.0000 0.0000 -1.0000
vn 0.0000 0.0000 1.0000
vn 0.0000 -0.9374 0.3482
vn 0.0000 1.0000 0.0000
vn 0.0000 -1.0000 0.0000
vn 0.2452 0.9088 -0.3375
vn 0.0000 0.9088 0.4172
vn -0.2452 0.9088 -0.3375
vn 0.3968 0.9088 0.1289
vn -0.3968 0.9088 0.1289
vn 0.6439 -0.7360 0.2092
vn -0.6439 -0.7360 0.2092
vn 0.3979 -0.7360 -0.5477
vn 0.0000 -0.7360 0.6770
vn -0.3979 -0.7360 -0.5477
usemtl env_wood
s off
f 10/1/1 4/2/1 5/3/1
f 3/4/2 7/5/2 2/6/2
f 6/7/3 5/8/3 1/9/3
f 9/10/4 3/11/4 4/12/4
f 7/13/5 1/14/5 2/15/5
f 8/16/6 14/17/6 13/18/6
f 7/13/7 11/19/7 6/20/7
f 10/1/8 14/17/8 9/21/8
f 7/5/9 13/22/9 12/23/9
f 6/7/10 15/24/10 10/25/10
f 14/17/11 20/26/11 19/27/11
f 12/23/12 18/28/12 17/29/12
f 11/30/13 20/31/13 15/24/13
f 13/18/14 19/32/14 18/33/14
f 12/34/15 16/35/15 11/19/15
f 20/36/16 21/37/16 25/38/16
f 18/39/17 24/40/17 23/41/17
f 16/42/18 22/43/18 21/37/18
f 19/44/17 25/38/17 24/40/17
f 17/45/17 23/41/17 22/43/17
f 5/3/19 29/46/19 30/47/19
f 3/4/19 27/48/19 28/49/19
f 1/9/19 30/50/19 26/51/19
f 4/12/17 28/52/17 29/53/17
f 2/15/20 26/54/20 27/55/20
f 10/1/1 9/21/1 4/2/1
f 3/4/2 8/56/2 7/5/2
f 6/7/3 10/25/3 5/8/3
f 9/10/4 8/16/4 3/11/4
f 7/13/5 6/20/5 1/14/5
f 8/16/6 9/10/6 14/17/6
f 7/13/7 12/34/7 11/19/7
f 10/1/8 15/57/8 14/17/8
f 7/5/9 8/56/9 13/22/9
f 6/7/10 11/30/10 15/24/10
f 14/17/11 15/57/11 20/26/11
f 12/23/12 13/22/12 18/28/12
f 11/30/13 16/58/13 20/31/13
f 13/18/14 14/17/14 19/32/14
f 12/34/15 17/59/15 16/35/15
f 20/36/21 16/42/21 21/37/21
f 18/39/22 19/44/22 24/40/22
f 16/42/23 17/45/23 22/43/23
f 19/44/24 20/36/24 25/38/24
f 17/45/25 18/39/25 23/41/25
f 5/3/26 4/2/26 29/46/26
f 3/4/27 2/6/27 27/48/27
f 1/9/28 5/8/28 30/50/28
f 4/12/29 3/11/29 28/52/29
f 2/15/30 1/14/30 26/54/30
o Circle.002
v 0.000000 0.000000 -0.024385
v -0.023191 0.000000 -0.007535
v -0.014333 0.000000 0.019728
v 0.014333 0.000000 0.019728
v 0.023192 0.000000 -0.007535
v 0.000000 0.469413 -0.029344
v -0.027908 0.469413 -0.009068
v -0.017248 0.469413 0.023740
v 0.017248 0.469413 0.023740
v 0.027908 0.469413 -0.009068
v 0.000000 0.525331 -0.048044
v -0.045693 0.525331 -0.014846
v -0.028240 0.525331 0.038868
v 0.028240 0.525331 0.038868
v 0.045693 0.525331 -0.014846
v 0.000000 0.586971 -0.029344
v -0.027908 0.586971 -0.009068
v -0.017248 0.586971 0.023740
v 0.017248 0.586971 0.023740
v 0.027908 0.586971 -0.009068
v 0.000000 0.597870 -0.000000
v 0.000000 0.597870 -0.000000
v 0.000000 0.597870 -0.000000
v 0.000000 0.597870 -0.000000
v 0.000000 0.597870 -0.000000
v 0.000000 -0.018148 -0.000000
v 0.000000 -0.018148 -0.000000
v 0.000000 -0.018148 -0.000000
v 0.000000 -0.018148 -0.000000
v 0.000000 -0.018148 -0.000000
vt 0.488546 0.757301
vt 0.449298 0.434138
vt 0.484923 0.434138
vt 0.555112 0.439228
vt 0.515865 0.716887
vt 0.519487 0.439228
vt 0.628925 0.716887
vt 0.589677 0.439228
vt 0.625302 0.439228
vt 0.418357 0.757301
vt 0.379109 0.434138
vt 0.414734 0.434138
vt 0.348167 0.757301
vt 0.308920 0.434138
vt 0.344545 0.434138
vt 0.375487 0.757301
vt 0.432016 0.795905
vt 0.361827 0.795905
vt 0.291637 0.795905
vt 0.305297 0.757301
vt 0.445676 0.757301
vt 0.572395 0.755197
vt 0.502206 0.755197
vt 0.572395 0.755197
vt 0.586055 0.716887
vt 0.488546 0.838226
vt 0.445676 0.838226
vt 0.558736 0.786064
vt 0.515866 0.786064
vt 0.642585 0.755197
vt 0.586055 0.786064
vt 0.418357 0.838226
vt 0.375487 0.838226
vt 0.361827 0.795905
vt 0.305297 0.838226
vt 0.667710 0.421500
vt 0.677913 0.442023
vt 0.677913 0.442023
vt 0.667710 0.458908
vt 0.677913 0.442023
vt 0.677913 0.442023
vt 0.708363 0.429038
vt 0.677913 0.442023
vt 0.642585 0.439961
vt 0.708363 0.452157
vt 0.467111 0.421500
vt 0.467111 0.421500
vt 0.537299 0.421500
vt 0.537299 0.421500
vt 0.607490 0.421500
vt 0.607490 0.421500
vt 0.396922 0.421500
vt 0.396922 0.421500
vt 0.326732 0.421500
vt 0.326732 0.421500
vt 0.558735 0.716887
vt 0.502206 0.795905
vt 0.628925 0.786064
vt 0.348167 0.838226
vn 0.9510 -0.0085 0.3090
vn -0.9510 -0.0085 0.3090
vn 0.5878 -0.0085 -0.8090
vn 0.0000 -0.0085 1.0000
vn -0.5878 -0.0085 -0.8090
vn 0.0000 -0.2612 0.9653
vn -0.5674 -0.2612 -0.7809
vn 0.9181 -0.2612 0.2983
vn -0.9181 -0.2612 0.2983
vn 0.5674 -0.2612 -0.7809
vn 0.9236 0.2384 0.3001
vn -0.9236 0.2384 0.3001
vn 0.5708 0.2384 -0.7857
vn 0.0000 0.2384 0.9712
vn -0.5708 0.2384 -0.7857
vn 0.0000 0.0000 -1.0000
vn 0.0000 0.0000 1.0000
vn 0.0000 -0.9374 0.3482
vn 0.0000 1.0000 0.0000
vn 0.0000 -1.0000 0.0000
vn 0.2452 0.9088 -0.3375
vn 0.0000 0.9088 0.4172
vn -0.2452 0.9088 -0.3375
vn 0.3968 0.9088 0.1289
vn -0.3968 0.9088 0.1289
vn 0.6439 -0.7360 0.2092
vn -0.6439 -0.7360 0.2092
vn 0.3979 -0.7360 -0.5477
vn 0.0000 -0.7360 0.6770
vn -0.3979 -0.7360 -0.5477
usemtl env_wood
s off
f 40/60/31 34/61/31 35/62/31
f 33/63/32 37/64/32 32/65/32
f 36/66/33 35/67/33 31/68/33
f 39/69/34 33/70/34 34/71/34
f 37/72/35 31/73/35 32/74/35
f 38/75/36 44/76/36 43/77/36
f 37/72/37 41/78/37 36/79/37
f 40/60/38 44/76/38 39/80/38
f 37/64/39 43/81/39 42/82/39
f 36/66/40 45/83/40 40/84/40
f 44/76/41 50/85/41 49/86/41
f 42/82/42 48/87/42 47/88/42
f 41/89/43 50/90/43 45/83/43
f 43/77/44 49/91/44 48/92/44
f 42/93/45 46/94/45 41/78/45
f 50/95/46 51/96/46 55/97/46
f 48/98/47 54/99/47 53/100/47
f 46/101/48 52/102/48 51/96/48
f 49/103/47 55/97/47 54/99/47
f 47/104/47 53/100/47 52/102/47
f 35/62/49 59/105/49 60/106/49
f 33/63/49 57/107/49 58/108/49
f 31/68/49 60/109/49 56/110/49
f 34/71/47 58/111/47 59/112/47
f 32/74/50 56/113/50 57/114/50
f 40/60/31 39/80/31 34/61/31
f 33/63/32 38/115/32 37/64/32
f 36/66/33 40/84/33 35/67/33
f 39/69/34 38/75/34 33/70/34
f 37/72/35 36/79/35 31/73/35
f 38/75/36 39/69/36 44/76/36
f 37/72/37 42/93/37 41/78/37
f 40/60/38 45/116/38 44/76/38
f 37/64/39 38/115/39 43/81/39
f 36/66/40 41/89/40 45/83/40
f 44/76/41 45/116/41 50/85/41
f 42/82/42 43/81/42 48/87/42
f 41/89/43 46/117/43 50/90/43
f 43/77/44 44/76/44 49/91/44
f 42/93/45 47/118/45 46/94/45
f 50/95/51 46/101/51 51/96/51
f 48/98/52 49/103/52 54/99/52
f 46/101/53 47/104/53 52/102/53
f 49/103/54 50/95/54 55/97/54
f 47/104/55 48/98/55 53/100/55
f 35/62/56 34/61/56 59/105/56
f 33/63/57 32/65/57 57/107/57
f 31/68/58 35/67/58 60/109/58
f 34/71/59 33/70/59 58/111/59
f 32/74/60 31/73/60 56/113/60
